<?xml version="1.0" encoding="UTF-8"?>
<svg version="1.1" xmlns="http://www.w3.org/2000/svg" width="204" height="192">
<path d="M0 0 C67.32 0 134.64 0 204 0 C204 63.36 204 126.72 204 192 C136.68 192 69.36 192 0 192 C0 128.64 0 65.28 0 0 Z " fill="#1C3C3C" transform="translate(0,0)"/>
<path d="M0 0 C0.33 0 0.66 0 1 0 C1.13535156 0.94359375 1.27070313 1.8871875 1.41015625 2.859375 C3.69045357 16.45923208 9.02892665 27.17580849 20 36 C33.35291951 44.87926623 44.4303707 46.14273137 60.16186523 46.16113281 C61.20587494 46.16609772 62.24988464 46.17106262 63.32553101 46.17617798 C66.73655891 46.19063514 70.14754041 46.19757199 73.55859375 46.203125 C75.32157146 46.20736607 75.32157146 46.20736607 77.12016487 46.21169281 C83.33377426 46.22661442 89.54736082 46.23588964 95.76098633 46.24023438 C102.14692809 46.24572477 108.5326573 46.2697853 114.91853237 46.29820633 C119.86103414 46.31690214 124.80348523 46.32204189 129.74601936 46.32357025 C132.09933707 46.32657897 134.45265426 46.33454656 136.80593681 46.34775543 C156.76418029 46.45183619 173.50673917 45.73058166 188.73828125 31.3359375 C195.6500925 24.19731379 199.93578204 17.00354063 201.6875 7.125 C201.88182617 6.09246094 201.88182617 6.09246094 202.08007812 5.0390625 C202.39474121 3.36085938 202.69851465 1.68062047 203 0 C203.33 0 203.66 0 204 0 C204 30.36 204 60.72 204 92 C136.68 92 69.36 92 0 92 C0 61.64 0 31.28 0 0 Z " fill="#FDFDFD" transform="translate(0,100)"/>
<path d="M0 0 C67.32 0 134.64 0 204 0 C204 30.36 204 60.72 204 92 C203.67 92 203.34 92 203 92 C202.91363281 91.34515625 202.82726562 90.6903125 202.73828125 90.015625 C200.42404831 74.98372663 194.08208866 64.1241975 182.19140625 54.796875 C171.38818067 47.50278227 160.28455878 45.84417329 147.50341797 45.87060547 C146.45867813 45.86885315 145.41393829 45.86710083 144.33753967 45.86529541 C140.88907196 45.8609003 137.44065572 45.86380797 133.9921875 45.8671875 C131.58570343 45.86651348 129.17921943 45.86554264 126.7727356 45.86428833 C121.72739006 45.86281427 116.68206223 45.86495544 111.63671875 45.86962891 C105.19453446 45.87530761 98.75239201 45.87205714 92.31020927 45.86605644 C87.33771454 45.86242725 82.36522957 45.86360054 77.39273453 45.86618423 C75.01906453 45.86684794 72.64539363 45.86604466 70.2717247 45.86370468 C66.93877601 45.86114141 63.60589307 45.86507089 60.27294922 45.87060547 C58.82295784 45.86756912 58.82295784 45.86756912 57.34367371 45.86447144 C40.11258937 45.91700151 27.86054418 48.34826304 15.11328125 60.76171875 C6.83722951 69.52729665 1.71821526 79.79034064 1 92 C0.67 92 0.34 92 0 92 C0 61.64 0 31.28 0 0 Z " fill="#FDFDFD" transform="translate(0,0)"/>
<path d="M0 0 C4.90713015 2.31973425 7.8111048 5.71776931 11 10 C12.54818891 14.64456672 12.99461519 19.3033695 11.26953125 23.98046875 C7.86737423 29.93731407 0.47279735 39.67299206 -6.23828125 41.6640625 C-6.81964844 41.77492187 -7.40101563 41.88578125 -8 42 C-8.88993738 43.33490607 -9.77076057 44.67675639 -10.60546875 46.046875 C-14.7731748 51.88399832 -20.50661909 57.8437746 -27 61 C-32.16565553 61.83462557 -36.64661359 61.65163049 -41.375 59.375 C-49.74403606 51.803015 -49.74403606 51.803015 -50.23828125 46.390625 C-50.43400151 38.10856749 -49.39511886 34.5673753 -43.61328125 28.4921875 C-36.86565897 21.57710598 -36.86565897 21.57710598 -33 19 C-32.01 19 -31.02 19 -30 19 C-29.77957031 18.29101562 -29.55914062 17.58203125 -29.33203125 16.8515625 C-27.70370383 13.36570029 -25.41344615 11.01044329 -22.6875 8.375 C-22.21376953 7.89804688 -21.74003906 7.42109375 -21.25195312 6.9296875 C-14.49390505 0.27333372 -9.35016407 -1.13065843 0 0 Z " fill="#F4F5F5" transform="translate(162,65)"/>
<path d="M0 0 C3.02103144 1.61804396 5.68128692 3.46544926 8 6 C8 6.99 8 7.98 8 9 C8.66 9 9.32 9 10 9 C10.49886719 10.16015625 10.99773437 11.3203125 11.51171875 12.515625 C14.04703035 17.58401935 17.69577429 20.94056318 21.8125 24.75 C30.57983993 33.19284216 35.67046662 41.21060894 39.890625 52.66796875 C41.54800228 56.15196255 43.95785376 58.73540613 46.609375 61.50390625 C48 63 48 63 48 64 C37.95801077 64.7914002 37.95801077 64.7914002 34.125 61.625 C33.42375 60.75875 32.7225 59.8925 32 59 C29.33466965 57.680982 29.33466965 57.680982 27 57 C26.01 59.64 25.02 62.28 24 65 C26.31 65 28.62 65 31 65 C31 65.66 31 66.32 31 67 C30.32453125 67.13277344 29.6490625 67.26554687 28.953125 67.40234375 C28.06109375 67.57894531 27.1690625 67.75554687 26.25 67.9375 C24.92742187 68.19853516 24.92742187 68.19853516 23.578125 68.46484375 C21.36764947 68.92368488 19.18487932 69.43336074 17 70 C16.67 69.34 16.34 68.68 16 68 C14.02 68 12.04 68 10 68 C10 67.34 10 66.68 10 66 C9.01 66.495 9.01 66.495 8 67 C0.69565217 67.23188406 0.69565217 67.23188406 -3 66 C-2.67 65.01 -2.34 64.02 -2 63 C1.96 63 5.92 63 10 63 C9.67 62.01 9.34 61.02 9 60 C8.93259135 58.43881572 8.91485544 56.8749748 8.9375 55.3125 C8.94652344 54.50425781 8.95554687 53.69601563 8.96484375 52.86328125 C8.97644531 52.24839844 8.98804687 51.63351563 9 51 C8.4121875 50.7421875 7.824375 50.484375 7.21875 50.21875 C2.35209919 47.54551927 -0.97168492 43.15694184 -2.69042969 37.88037109 C-3.89763956 33.28664003 -4.81512862 28.6415089 -5.63037109 23.96362305 C-6.00914787 21.95140272 -6.48510147 19.98133619 -7 18 C-8.11375 18.020625 -9.2275 18.04125 -10.375 18.0625 C-14 18 -14 18 -16 17 C-16.33 17.66 -16.66 18.32 -17 19 C-18 18 -18 18 -18.5625 15.0625 C-18.55045533 9.26901245 -13.77779005 4.95985222 -10 1 C-6.72162201 -0.63918899 -3.52855505 -0.66390931 0 0 Z " fill="#FAFAFA" transform="translate(55,61)"/>
<path d="M0 0 C2.8100346 1.79363911 4.50940468 3.01880935 6 6 C6.58299767 9.64373547 6.66680479 12.0239265 4.54296875 15.1328125 C2.7594366 17.16791655 0.92757908 19.10131397 -1 21 C-1.52980469 21.57234375 -2.05960938 22.1446875 -2.60546875 22.734375 C-4 24 -4 24 -6 24 C-6.24234375 23.45730469 -6.4846875 22.91460937 -6.734375 22.35546875 C-9.2596762 16.72373644 -9.2596762 16.72373644 -14 13 C-15.32 13 -16.64 13 -18 13 C-18.41890218 15.78938212 -18.41890218 15.78938212 -18 19 C-16.7625 20.2065625 -16.7625 20.2065625 -15.5 21.4375 C-13 24 -13 24 -12.25 27.3125 C-13.32782861 32.61182401 -16.18660893 35.31783899 -20 39 C-20.76957031 39.78310547 -20.76957031 39.78310547 -21.5546875 40.58203125 C-25.13970924 43.94420028 -28.11631661 45 -33 45 C-36.57387602 43.41161066 -37.81089572 42.28365642 -40 39 C-40.83557839 35.82352642 -40.84042964 33.17771918 -40 30 C-37.39436481 26.52407217 -34.45207396 23.63578932 -31 21 C-30.34 21 -29.68 21 -29 21 C-28.05030124 22.4024963 -27.16464479 23.84867868 -26.3125 25.3125 C-23.38047035 29.91687248 -21.1766334 31.44700998 -16 33 C-15.66619186 29.62563814 -15.66619186 29.62563814 -16 26 C-17.86366234 24.2061084 -17.86366234 24.2061084 -20 23 C-21.25497957 19.2350613 -21.52064444 16.96991382 -21 13 C-19.00957191 9.9683364 -16.59671529 7.51770772 -14 5 C-13.24783203 4.19949219 -13.24783203 4.19949219 -12.48046875 3.3828125 C-8.37202258 -0.62377137 -5.43013413 -0.77573345 0 0 Z " fill="#1B3B3B" transform="translate(160,73)"/>
<path d="M0 0 C2.24609375 1.953125 2.24609375 1.953125 4.4921875 3.90625 C5.95936421 5.19572458 5.95936421 5.19572458 8 5 C8 5.99 8 6.98 8 8 C10.31 8 12.62 8 15 8 C15 8.66 15 9.32 15 10 C14.32453125 10.13277344 13.6490625 10.26554688 12.953125 10.40234375 C12.06109375 10.57894531 11.1690625 10.75554687 10.25 10.9375 C9.36828125 11.11152344 8.4865625 11.28554687 7.578125 11.46484375 C5.36764947 11.92368488 3.18487932 12.43336074 1 13 C0.9175 12.21625 0.835 11.4325 0.75 10.625 C0.27193661 7.85250896 0.27193661 7.85250896 -2.0625 6.6875 C-2.701875 6.460625 -3.34125 6.23375 -4 6 C-3.525625 5.566875 -3.05125 5.13375 -2.5625 4.6875 C-0.76313043 2.97690387 -0.76313043 2.97690387 0 0 Z " fill="#E3E6E6" transform="translate(71,118)"/>
<path d="M0 0 C3.96 0 7.92 0 12 0 C12.66 1.32 13.32 2.64 14 4 C16.05000871 4.80528889 16.05000871 4.80528889 18 5 C16.02 5 14.04 5 12 5 C12 4.34 12 3.68 12 3 C11.01 3.495 11.01 3.495 10 4 C2.69565217 4.23188406 2.69565217 4.23188406 -1 3 C-0.67 2.01 -0.34 1.02 0 0 Z " fill="#C8CDCD" transform="translate(53,124)"/>
<path d="M0 0 C0.66 0.33 1.32 0.66 2 1 C1.50628906 1.47050781 1.01257813 1.94101563 0.50390625 2.42578125 C-0.13675781 3.04839844 -0.77742187 3.67101562 -1.4375 4.3125 C-2.07558594 4.92738281 -2.71367187 5.54226562 -3.37109375 6.17578125 C-5.2221418 8.00644056 -5.2221418 8.00644056 -6 11 C-6.99 11.33 -7.98 11.66 -9 12 C-9.33 13.98 -9.66 15.96 -10 18 C-11.125 16.3125 -11.125 16.3125 -12 14 C-10.82525822 9.9807992 -8.98932001 7.62941854 -6 4.75 C-4.948125 3.72132812 -4.948125 3.72132812 -3.875 2.671875 C-2 1 -2 1 0 0 Z " fill="#1D3D3D" transform="translate(151,74)"/>
<path d="M0 0 C1.65 1.65 3.3 3.3 5 5 C4.67 5.99 4.34 6.98 4 8 C1.6568787 7.74438677 -0.67843403 7.40729228 -3 7 C-3.33 6.34 -3.66 5.68 -4 5 C-3.01 4.34 -2.02 3.68 -1 3 C-0.67 2.01 -0.34 1.02 0 0 Z " fill="#284343" transform="translate(71,118)"/>
<path d="M0 0 C0.99 1.98 1.98 3.96 3 6 C2.01 5.67 1.02 5.34 0 5 C0 4.34 0 3.68 0 3 C-2.64 5.31 -5.28 7.62 -8 10 C-8.33 9.01 -8.66 8.02 -9 7 C-7.88121617 5.82737096 -6.75476949 4.66204862 -5.625 3.5 C-4.68527344 2.52546875 -4.68527344 2.52546875 -3.7265625 1.53125 C-2 0 -2 0 0 0 Z " fill="#264141" transform="translate(131,94)"/>
<path d="M0 0 C0.061875 0.61875 0.12375 1.2375 0.1875 1.875 C0.455625 2.57625 0.72375 3.2775 1 4 C1.825 4.309375 2.65 4.61875 3.5 4.9375 C4.325 5.288125 5.15 5.63875 6 6 C6.8125 8.625 6.8125 8.625 7 11 C2.39529412 9.54588235 2.39529412 9.54588235 0.6875 7.1875 C-0.09802451 4.68810383 -0.14472595 2.60506718 0 0 Z " fill="#193333" transform="translate(139,88)"/>
<path d="M0 0 C0.4125 0.45375 0.825 0.9075 1.25 1.375 C3.06408095 3.05950374 4.75285627 3.99265971 7 5 C7 5.66 7 6.32 7 7 C4.625 7.1875 4.625 7.1875 2 7 C0 4 0 4 0 0 Z " fill="#F2F3F3" transform="translate(65,121)"/>
<path d="M0 0 C0.33 0.66 0.66 1.32 1 2 C1.66 2.33 2.32 2.66 3 3 C2.01 3.33 1.02 3.66 0 4 C-0.33 5.98 -0.66 7.96 -1 10 C-2.125 8.3125 -2.125 8.3125 -3 6 C-1.7 1.7 -1.7 1.7 0 0 Z " fill="#627272" transform="translate(142,82)"/>
</svg>
