<svg width="1680" height="587" viewBox="0 0 1680 587" fill="none" xmlns="http://www.w3.org/2000/svg">
<path d="M561.509 376V143.273H653.327C670.902 143.273 685.902 146.417 698.327 152.705C710.827 158.917 720.334 167.742 726.849 179.182C733.44 190.545 736.736 203.917 736.736 219.295C736.736 234.75 733.402 248.045 726.736 259.182C720.069 270.242 710.41 278.727 697.759 284.636C685.183 290.545 669.955 293.5 652.077 293.5H590.599V253.955H644.122C653.516 253.955 661.319 252.667 667.531 250.091C673.743 247.515 678.365 243.652 681.395 238.5C684.501 233.348 686.054 226.947 686.054 219.295C686.054 211.568 684.501 205.053 681.395 199.75C678.365 194.447 673.705 190.432 667.418 187.705C661.205 184.902 653.365 183.5 643.895 183.5H610.713V376H561.509ZM687.19 270.091L745.031 376H690.713L634.122 270.091H687.19ZM820.372 379.295C809.236 379.295 799.312 377.364 790.599 373.5C781.887 369.561 774.993 363.765 769.918 356.114C764.918 348.386 762.418 338.765 762.418 327.25C762.418 317.553 764.198 309.409 767.759 302.818C771.319 296.227 776.168 290.924 782.304 286.909C788.44 282.894 795.41 279.864 803.213 277.818C811.092 275.773 819.349 274.333 827.986 273.5C838.137 272.439 846.319 271.455 852.531 270.545C858.743 269.561 863.251 268.121 866.054 266.227C868.857 264.333 870.259 261.53 870.259 257.818V257.136C870.259 249.939 867.986 244.371 863.44 240.432C858.971 236.492 852.607 234.523 844.349 234.523C835.637 234.523 828.705 236.455 823.554 240.318C818.402 244.106 814.993 248.879 813.327 254.636L768.554 251C770.827 240.394 775.296 231.227 781.963 223.5C788.63 215.697 797.228 209.712 807.759 205.545C818.365 201.303 830.637 199.182 844.577 199.182C854.274 199.182 863.554 200.318 872.418 202.591C881.357 204.864 889.274 208.386 896.168 213.159C903.137 217.932 908.63 224.068 912.645 231.568C916.66 238.992 918.668 247.894 918.668 258.273V376H872.759V351.795H871.395C868.592 357.25 864.842 362.061 860.145 366.227C855.448 370.318 849.804 373.538 843.213 375.886C836.622 378.159 829.009 379.295 820.372 379.295ZM834.236 345.886C841.357 345.886 847.645 344.485 853.099 341.682C858.554 338.803 862.834 334.939 865.94 330.091C869.046 325.242 870.599 319.75 870.599 313.614V295.091C869.084 296.076 867.001 296.985 864.349 297.818C861.774 298.576 858.857 299.295 855.599 299.977C852.342 300.583 849.084 301.152 845.827 301.682C842.569 302.136 839.615 302.553 836.963 302.932C831.281 303.765 826.319 305.091 822.077 306.909C817.834 308.727 814.539 311.189 812.19 314.295C809.842 317.326 808.668 321.114 808.668 325.659C808.668 332.25 811.054 337.288 815.827 340.773C820.675 344.182 826.812 345.886 834.236 345.886ZM957.134 376V143.273H1005.54V230.773H1007.02C1009.14 226.076 1012.21 221.303 1016.22 216.455C1020.32 211.53 1025.62 207.439 1032.13 204.182C1038.72 200.848 1046.91 199.182 1056.68 199.182C1069.41 199.182 1081.15 202.515 1091.91 209.182C1102.66 215.773 1111.26 225.735 1117.7 239.068C1124.14 252.326 1127.36 268.955 1127.36 288.955C1127.36 308.424 1124.22 324.864 1117.93 338.273C1111.72 351.606 1103.23 361.72 1092.47 368.614C1081.79 375.432 1069.82 378.841 1056.57 378.841C1047.17 378.841 1039.18 377.288 1032.59 374.182C1026.07 371.076 1020.73 367.174 1016.57 362.477C1012.4 357.705 1009.22 352.894 1007.02 348.045H1004.86V376H957.134ZM1004.52 288.727C1004.52 299.106 1005.96 308.159 1008.84 315.886C1011.72 323.614 1015.88 329.636 1021.34 333.955C1026.79 338.197 1033.42 340.318 1041.22 340.318C1049.1 340.318 1055.77 338.159 1061.22 333.841C1066.68 329.447 1070.81 323.386 1073.61 315.659C1076.49 307.856 1077.93 298.879 1077.93 288.727C1077.93 278.652 1076.53 269.788 1073.72 262.136C1070.92 254.485 1066.79 248.5 1061.34 244.182C1055.88 239.864 1049.18 237.705 1041.22 237.705C1033.35 237.705 1026.68 239.788 1021.22 243.955C1015.85 248.121 1011.72 254.03 1008.84 261.682C1005.96 269.333 1004.52 278.348 1004.52 288.727ZM1160.57 376V143.273H1208.98V230.773H1210.46C1212.58 226.076 1215.65 221.303 1219.66 216.455C1223.75 211.53 1229.06 207.439 1235.57 204.182C1242.16 200.848 1250.34 199.182 1260.12 199.182C1272.84 199.182 1284.59 202.515 1295.34 209.182C1306.1 215.773 1314.7 225.735 1321.14 239.068C1327.58 252.326 1330.8 268.955 1330.8 288.955C1330.8 308.424 1327.65 324.864 1321.37 338.273C1315.15 351.606 1306.67 361.72 1295.91 368.614C1285.23 375.432 1273.26 378.841 1260 378.841C1250.61 378.841 1242.62 377.288 1236.03 374.182C1229.51 371.076 1224.17 367.174 1220 362.477C1215.84 357.705 1212.65 352.894 1210.46 348.045H1208.3V376H1160.57ZM1207.96 288.727C1207.96 299.106 1209.4 308.159 1212.28 315.886C1215.15 323.614 1219.32 329.636 1224.78 333.955C1230.23 338.197 1236.86 340.318 1244.66 340.318C1252.54 340.318 1259.21 338.159 1264.66 333.841C1270.12 329.447 1274.25 323.386 1277.05 315.659C1279.93 307.856 1281.37 298.879 1281.37 288.727C1281.37 278.652 1279.96 269.788 1277.16 262.136C1274.36 254.485 1270.23 248.5 1264.78 244.182C1259.32 239.864 1252.62 237.705 1244.66 237.705C1236.78 237.705 1230.12 239.788 1224.66 243.955C1219.28 248.121 1215.15 254.03 1212.28 261.682C1209.4 269.333 1207.96 278.348 1207.96 288.727ZM1363.1 376V201.455H1411.51V376H1363.1ZM1387.42 178.955C1380.22 178.955 1374.05 176.568 1368.89 171.795C1363.82 166.947 1361.28 161.152 1361.28 154.409C1361.28 147.742 1363.82 142.023 1368.89 137.25C1374.05 132.402 1380.22 129.977 1387.42 129.977C1394.61 129.977 1400.75 132.402 1405.83 137.25C1410.98 142.023 1413.55 147.742 1413.55 154.409C1413.55 161.152 1410.98 166.947 1405.83 171.795C1400.75 176.568 1394.61 178.955 1387.42 178.955ZM1543.13 201.455V237.818H1438.01V201.455H1543.13ZM1461.88 159.636H1510.29V322.364C1510.29 326.833 1510.97 330.318 1512.33 332.818C1513.7 335.242 1515.59 336.947 1518.01 337.932C1520.51 338.917 1523.39 339.409 1526.65 339.409C1528.92 339.409 1531.2 339.22 1533.47 338.841C1535.74 338.386 1537.48 338.045 1538.7 337.818L1546.31 373.841C1543.89 374.598 1540.48 375.47 1536.08 376.455C1531.69 377.515 1526.35 378.159 1520.06 378.386C1508.39 378.841 1498.17 377.288 1489.38 373.727C1480.67 370.167 1473.89 364.636 1469.04 357.136C1464.19 349.636 1461.8 340.167 1461.88 328.727V159.636ZM1667.5 201.455V237.818H1562.39V201.455H1667.5ZM1586.25 159.636H1634.66V322.364C1634.66 326.833 1635.34 330.318 1636.71 332.818C1638.07 335.242 1639.96 336.947 1642.39 337.932C1644.89 338.917 1647.77 339.409 1651.03 339.409C1653.3 339.409 1655.57 339.22 1657.84 338.841C1660.12 338.386 1661.86 338.045 1663.07 337.818L1670.68 373.841C1668.26 374.598 1664.85 375.47 1660.46 376.455C1656.06 377.515 1650.72 378.159 1644.43 378.386C1632.77 378.841 1622.54 377.288 1613.75 373.727C1605.04 370.167 1598.26 364.636 1593.41 357.136C1588.56 349.636 1586.18 340.167 1586.25 328.727V159.636Z" fill="url(#paint0_linear_1606_2)"/>
<path d="M425.528 198.22C405.867 191.733 378.841 186.304 348.859 182.783C356.708 145.597 358.98 112.233 355.605 83.1289C351.214 45.2664 338.319 24.6116 331.027 15.67C328.518 12.6008 324.896 10.6501 320.952 10.2447C317.009 9.83926 313.066 11.0122 309.985 13.5068C292.103 28.0485 279.11 49.4802 271.364 77.2057C265.287 98.9564 262.406 124.651 262.798 153.581C262.913 162.051 263.306 170.268 263.862 178.092C257.103 177.79 250.332 177.863 243.58 178.311C246.787 147.762 245.215 113.311 228.534 90.0432C215.273 71.5477 194.51 63.9417 171.564 69.1813C133.45 77.8791 100.877 117.953 92.3558 166.632C92.0501 168.382 92.1229 170.177 92.5692 171.896C93.0155 173.616 93.825 175.22 94.9432 176.6C96.0614 177.981 97.4623 179.106 99.0516 179.899C100.641 180.693 102.382 181.137 104.157 181.202C115.217 181.602 137.064 181.427 159.118 175.827C161.627 175.19 164.045 174.483 166.418 173.745C166.379 176.805 166.482 179.887 166.702 182.963C138.397 186.64 112.58 192.187 93.4882 198.722C68.904 207.139 56.9531 216.471 56.9531 227.254C56.9531 242.169 77.9766 254.258 119.45 263.182C120.484 263.404 121.53 263.623 122.581 263.839C121.35 295.12 119.811 328.106 118.315 360.077C116.737 393.841 115.105 428.754 113.841 461.611C113.646 466.733 115.051 471.789 117.861 476.077C120.671 480.364 124.747 483.67 129.522 485.535C170.643 501.62 214.412 509.866 258.567 509.845C259.589 509.845 260.615 509.845 261.639 509.831C304.795 509.481 347.523 501.243 387.716 485.525C392.483 483.659 396.552 480.357 399.358 476.075C402.165 471.794 403.57 466.746 403.38 461.63L395.989 264.129C397.525 263.818 399.048 263.504 400.546 263.182C442.015 254.258 463.043 242.169 463.043 227.254C463.041 216.048 450.77 206.55 425.528 198.22ZM317.669 22.9632C318.243 22.5012 318.977 22.2853 319.71 22.3628C320.442 22.4403 321.115 22.8048 321.579 23.3766C333.259 37.6969 367.516 95.0716 322.015 235.457C310.266 236.36 297.565 237.009 284.341 237.387C278.677 210.126 254.314 74.4869 317.669 22.9632ZM242.014 190.627C249.628 190.023 257.274 189.936 264.899 190.367C265.14 192.81 265.393 195.196 265.656 197.525C257.403 197.081 249.131 197.134 240.885 197.682C241.28 195.375 241.657 193.023 242.014 190.627ZM267.214 209.866C268.887 221.883 270.68 231.514 271.932 237.65C267.21 237.718 262.449 237.755 257.651 237.761C248.866 237.761 240.182 237.637 231.699 237.404C233.536 231.149 236.129 221.581 238.535 210.06C244.957 209.592 257.072 208.962 267.214 209.866ZM104.594 169.022C104.559 169.022 104.524 169.014 104.493 168.998C104.461 168.982 104.434 168.958 104.414 168.929C104.39 168.903 104.373 168.871 104.364 168.837C104.354 168.803 104.353 168.767 104.36 168.733C113.345 117.41 146.898 87.3092 174.271 81.0621C192.459 76.9112 208.212 82.6221 218.624 97.1435C235.143 120.182 234.14 157.818 230.39 185.334C227.932 202.806 224.154 220.067 219.088 236.968C209.798 236.579 200.852 236.048 192.405 235.387C188.363 225.524 176.937 194.99 178.796 169.185C196.396 161.518 209.205 150.408 216.983 135.999C217.363 135.295 217.601 134.523 217.683 133.727C217.764 132.931 217.688 132.126 217.459 131.36C217.23 130.593 216.852 129.879 216.347 129.258C215.842 128.637 215.219 128.122 214.515 127.742C213.811 127.362 213.039 127.124 212.243 127.043C211.447 126.961 210.642 127.037 209.875 127.266C209.109 127.495 208.395 127.873 207.774 128.378C207.153 128.884 206.638 129.506 206.258 130.21C185.401 168.857 123.171 169.682 104.594 169.022ZM383.282 474.17C303.119 505.482 214.11 505.486 133.946 474.18C131.531 473.236 129.47 471.564 128.049 469.395C126.628 467.227 125.918 464.67 126.017 462.079C127.278 429.274 128.909 394.384 130.485 360.646C131.952 329.273 133.46 296.929 134.681 266.143C170.055 272.355 213.842 275.732 259.991 275.732C305.52 275.732 348.748 272.443 383.87 266.388L391.194 462.085C391.293 464.671 390.584 467.223 389.167 469.389C387.75 471.554 385.691 473.225 383.282 474.17ZM397.98 251.267C361.189 259.188 312.186 263.544 259.997 263.544C207.808 263.544 158.805 259.188 122.014 251.267C69.7419 240.018 69.1406 227.77 69.1406 227.254C69.1406 224.724 75.0546 217.91 97.4349 210.254C115.751 203.983 140.674 198.641 168.127 195.069C170.406 208.42 173.984 221.516 178.809 234.171C175.957 233.877 173.172 233.57 170.487 233.243C150.284 230.789 140.199 228.091 135.264 226.228C140.594 224.555 151.514 222.079 173.723 219.269C172.616 215.574 171.535 211.579 170.553 207.387C157.688 209.039 147.624 210.693 139.949 212.419C127.457 215.227 119.139 218.569 119.139 225.747C119.139 232.404 124.476 239.295 163.192 244.592C188.467 248.05 222.014 249.954 257.651 249.954C293.288 249.954 326.835 248.05 352.111 244.592C390.827 239.295 396.164 232.404 396.164 225.747C396.164 218.014 386.256 214.383 375.547 211.61C364.973 209.045 354.256 207.111 343.453 205.821C342.428 209.742 341.344 213.699 340.203 217.693C361.353 220.311 374.539 223.554 380.767 225.949C376.121 227.816 366.065 230.666 344.82 233.246C341.721 233.623 338.504 233.977 335.186 234.309C339.476 220.707 343.139 207.52 346.175 194.749C420.058 203.22 450.857 219.967 450.857 227.262C450.853 227.77 450.252 240.018 397.98 251.267Z" fill="url(#paint1_linear_1606_2)"/>
<path d="M149.16 418.59C147.546 418.525 145.972 419.104 144.783 420.199C143.595 421.294 142.89 422.816 142.823 424.431L142.406 434.637C142.374 435.436 142.499 436.235 142.775 436.986C143.051 437.737 143.472 438.427 144.014 439.015C144.557 439.604 145.21 440.08 145.936 440.416C146.662 440.752 147.448 440.942 148.247 440.974H148.499C150.072 440.973 151.583 440.364 152.717 439.275C153.851 438.186 154.52 436.7 154.584 435.129L155 424.923C155.065 423.309 154.486 421.735 153.391 420.548C152.296 419.36 150.774 418.656 149.16 418.59Z" fill="url(#paint2_linear_1606_2)"/>
<path d="M154.395 304.767C153.595 304.731 152.797 304.852 152.044 305.125C151.292 305.397 150.6 305.815 150.009 306.355C149.418 306.894 148.939 307.545 148.6 308.27C148.261 308.994 148.067 309.779 148.031 310.578L144.215 394.587C144.179 395.386 144.3 396.185 144.573 396.938C144.845 397.69 145.263 398.381 145.803 398.972C146.343 399.563 146.993 400.042 147.718 400.382C148.443 400.721 149.227 400.914 150.027 400.951C150.121 400.951 150.215 400.957 150.308 400.957C151.875 400.956 153.382 400.35 154.515 399.267C155.648 398.183 156.32 396.705 156.391 395.139L160.206 311.132C160.243 310.332 160.121 309.534 159.849 308.781C159.577 308.028 159.159 307.337 158.619 306.746C158.079 306.155 157.429 305.676 156.704 305.336C155.979 304.997 155.194 304.803 154.395 304.767Z" fill="url(#paint3_linear_1606_2)"/>
<path d="M395.42 43.3347H414.378M433.337 43.3347H414.378M414.378 43.3347V24.126M414.378 43.3347V62.2639" stroke="white" stroke-width="10"/>
<path d="M43.3301 170.874H62.2884M81.2467 170.874H62.2884M62.2884 170.874V151.665M62.2884 170.874V189.803" stroke="white" stroke-width="10"/>
<path d="M422.5 311.709H441.458M460.417 311.709H441.458M441.458 311.709V292.5M441.458 311.709V330.638" stroke="white" stroke-width="10"/>
<circle cx="390.003" cy="140.833" r="10.8333" fill="#D9D9D9"/>
<circle cx="216.663" cy="43.3333" r="10.8333" fill="#D9D9D9"/>
<circle cx="86.6634" cy="97.4984" r="10.8333" fill="#D9D9D9"/>
<path d="M1000.82 552V435.636H1025.42V531.716H1075.31V552H1000.82ZM1130.92 553.705C1121.94 553.705 1114.21 551.886 1107.73 548.25C1101.29 544.576 1096.33 539.386 1092.85 532.682C1089.36 525.939 1087.62 517.966 1087.62 508.761C1087.62 499.784 1089.36 491.905 1092.85 485.125C1096.33 478.345 1101.24 473.061 1107.56 469.273C1113.93 465.485 1121.39 463.591 1129.95 463.591C1135.71 463.591 1141.07 464.519 1146.03 466.375C1151.03 468.193 1155.39 470.939 1159.1 474.614C1162.85 478.288 1165.76 482.909 1167.85 488.477C1169.93 494.008 1170.97 500.485 1170.97 507.909V514.557H1097.28V499.557H1148.19C1148.19 496.072 1147.43 492.985 1145.92 490.295C1144.4 487.606 1142.3 485.504 1139.61 483.989C1136.96 482.436 1133.87 481.659 1130.35 481.659C1126.67 481.659 1123.42 482.511 1120.58 484.216C1117.77 485.883 1115.58 488.136 1113.98 490.977C1112.39 493.78 1111.58 496.905 1111.54 500.352V514.614C1111.54 518.932 1112.34 522.663 1113.93 525.807C1115.56 528.951 1117.85 531.375 1120.8 533.08C1123.76 534.784 1127.26 535.636 1131.31 535.636C1134 535.636 1136.47 535.258 1138.7 534.5C1140.94 533.742 1142.85 532.606 1144.44 531.091C1146.03 529.576 1147.24 527.72 1148.08 525.523L1170.46 527C1169.33 532.379 1167 537.076 1163.47 541.091C1159.99 545.068 1155.48 548.174 1149.95 550.409C1144.46 552.606 1138.11 553.705 1130.92 553.705ZM1211.65 553.648C1206.09 553.648 1201.12 552.682 1196.77 550.75C1192.41 548.78 1188.97 545.883 1186.43 542.057C1183.93 538.193 1182.68 533.383 1182.68 527.625C1182.68 522.777 1183.57 518.705 1185.35 515.409C1187.13 512.114 1189.55 509.462 1192.62 507.455C1195.69 505.447 1199.17 503.932 1203.08 502.909C1207.01 501.886 1211.14 501.167 1215.46 500.75C1220.54 500.22 1224.63 499.727 1227.73 499.273C1230.84 498.78 1233.09 498.061 1234.5 497.114C1235.9 496.167 1236.6 494.765 1236.6 492.909V492.568C1236.6 488.97 1235.46 486.186 1233.19 484.216C1230.95 482.246 1227.77 481.261 1223.64 481.261C1219.29 481.261 1215.82 482.227 1213.25 484.159C1210.67 486.053 1208.97 488.439 1208.13 491.318L1185.75 489.5C1186.88 484.197 1189.12 479.614 1192.45 475.75C1195.78 471.848 1200.08 468.856 1205.35 466.773C1210.65 464.652 1216.79 463.591 1223.76 463.591C1228.61 463.591 1233.25 464.159 1237.68 465.295C1242.15 466.432 1246.11 468.193 1249.55 470.58C1253.04 472.966 1255.78 476.034 1257.79 479.784C1259.8 483.496 1260.8 487.947 1260.8 493.136V552H1237.85V539.898H1237.17C1235.76 542.625 1233.89 545.03 1231.54 547.114C1229.19 549.159 1226.37 550.769 1223.08 551.943C1219.78 553.08 1215.97 553.648 1211.65 553.648ZM1218.59 536.943C1222.15 536.943 1225.29 536.242 1228.02 534.841C1230.75 533.402 1232.89 531.47 1234.44 529.045C1235.99 526.621 1236.77 523.875 1236.77 520.807V511.545C1236.01 512.038 1234.97 512.492 1233.64 512.909C1232.36 513.288 1230.9 513.648 1229.27 513.989C1227.64 514.292 1226.01 514.576 1224.38 514.841C1222.75 515.068 1221.28 515.277 1219.95 515.466C1217.11 515.883 1214.63 516.545 1212.51 517.455C1210.39 518.364 1208.74 519.595 1207.56 521.148C1206.39 522.663 1205.8 524.557 1205.8 526.83C1205.8 530.125 1207 532.644 1209.38 534.386C1211.81 536.091 1214.87 536.943 1218.59 536.943ZM1279.58 552V464.727H1303.05V479.955H1303.96C1305.55 474.538 1308.22 470.447 1311.97 467.682C1315.72 464.879 1320.04 463.477 1324.92 463.477C1326.13 463.477 1327.44 463.553 1328.84 463.705C1330.24 463.856 1331.47 464.064 1332.54 464.33V485.807C1331.4 485.466 1329.83 485.163 1327.82 484.898C1325.81 484.633 1323.97 484.5 1322.31 484.5C1318.75 484.5 1315.57 485.277 1312.76 486.83C1310 488.345 1307.8 490.466 1306.17 493.193C1304.58 495.92 1303.79 499.064 1303.79 502.625V552H1279.58ZM1369.25 501.545V552H1345.05V464.727H1368.12V480.125H1369.14C1371.07 475.049 1374.31 471.034 1378.86 468.08C1383.4 465.087 1388.91 463.591 1395.39 463.591C1401.45 463.591 1406.74 464.917 1411.24 467.568C1415.75 470.22 1419.25 474.008 1421.75 478.932C1424.25 483.818 1425.5 489.652 1425.5 496.432V552H1401.3V500.75C1401.34 495.409 1399.97 491.242 1397.21 488.25C1394.44 485.22 1390.64 483.705 1385.79 483.705C1382.53 483.705 1379.65 484.405 1377.15 485.807C1374.69 487.208 1372.76 489.254 1371.36 491.943C1369.99 494.595 1369.29 497.795 1369.25 501.545ZM1444.58 552V464.727H1468.79V552H1444.58ZM1456.74 453.477C1453.14 453.477 1450.05 452.284 1447.48 449.898C1444.94 447.473 1443.67 444.576 1443.67 441.205C1443.67 437.871 1444.94 435.011 1447.48 432.625C1450.05 430.201 1453.14 428.989 1456.74 428.989C1460.34 428.989 1463.41 430.201 1465.94 432.625C1468.52 435.011 1469.81 437.871 1469.81 441.205C1469.81 444.576 1468.52 447.473 1465.94 449.898C1463.41 452.284 1460.34 453.477 1456.74 453.477ZM1512.38 501.545V552H1488.17V464.727H1511.24V480.125H1512.27C1514.2 475.049 1517.44 471.034 1521.98 468.08C1526.53 465.087 1532.04 463.591 1538.52 463.591C1544.58 463.591 1549.86 464.917 1554.37 467.568C1558.88 470.22 1562.38 474.008 1564.88 478.932C1567.38 483.818 1568.63 489.652 1568.63 496.432V552H1544.42V500.75C1544.46 495.409 1543.1 491.242 1540.33 488.25C1537.57 485.22 1533.76 483.705 1528.91 483.705C1525.66 483.705 1522.78 484.405 1520.28 485.807C1517.81 487.208 1515.88 489.254 1514.48 491.943C1513.12 494.595 1512.42 497.795 1512.38 501.545ZM1627.02 586.545C1619.18 586.545 1612.46 585.466 1606.85 583.307C1601.29 581.186 1596.85 578.288 1593.56 574.614C1590.26 570.939 1588.12 566.811 1587.14 562.227L1609.52 559.216C1610.21 560.958 1611.29 562.587 1612.76 564.102C1614.24 565.617 1616.19 566.83 1618.62 567.739C1621.08 568.686 1624.07 569.159 1627.59 569.159C1632.86 569.159 1637.19 567.871 1640.6 565.295C1644.05 562.758 1645.77 558.496 1645.77 552.511V536.545H1644.75C1643.69 538.97 1642.1 541.261 1639.98 543.42C1637.86 545.58 1635.13 547.341 1631.8 548.705C1628.46 550.068 1624.49 550.75 1619.87 550.75C1613.31 550.75 1607.35 549.235 1601.97 546.205C1596.63 543.136 1592.37 538.458 1589.18 532.17C1586.04 525.845 1584.47 517.852 1584.47 508.193C1584.47 498.307 1586.08 490.049 1589.3 483.42C1592.52 476.792 1596.8 471.83 1602.14 468.534C1607.52 465.239 1613.41 463.591 1619.81 463.591C1624.69 463.591 1628.79 464.424 1632.08 466.091C1635.38 467.72 1638.03 469.765 1640.04 472.227C1642.08 474.652 1643.65 477.038 1644.75 479.386H1645.66V464.727H1669.69V552.852C1669.69 560.277 1667.88 566.489 1664.24 571.489C1660.6 576.489 1655.57 580.239 1649.13 582.739C1642.72 585.277 1635.36 586.545 1627.02 586.545ZM1627.54 532.568C1631.44 532.568 1634.73 531.602 1637.42 529.67C1640.15 527.701 1642.23 524.898 1643.67 521.261C1645.15 517.587 1645.89 513.193 1645.89 508.08C1645.89 502.966 1645.17 498.534 1643.73 494.784C1642.29 490.996 1640.21 488.061 1637.48 485.977C1634.75 483.894 1631.44 482.852 1627.54 482.852C1623.56 482.852 1620.21 483.932 1617.48 486.091C1614.75 488.212 1612.69 491.167 1611.29 494.955C1609.88 498.742 1609.18 503.117 1609.18 508.08C1609.18 513.117 1609.88 517.473 1611.29 521.148C1612.72 524.784 1614.79 527.606 1617.48 529.614C1620.21 531.583 1623.56 532.568 1627.54 532.568Z" fill="white"/>
<defs>
<linearGradient id="paint0_linear_1606_2" x1="541" y1="279.461" x2="1679.78" y2="260.665" gradientUnits="userSpaceOnUse">
<stop stop-color="#9AD5FF"/>
<stop offset="1" stop-color="#0061FF"/>
</linearGradient>
<linearGradient id="paint1_linear_1606_2" x1="259.997" y1="476.891" x2="259.997" y2="73.1971" gradientUnits="userSpaceOnUse">
<stop stop-color="#0061FF"/>
<stop offset="0.898" stop-color="#9AD5FF"/>
</linearGradient>
<linearGradient id="paint2_linear_1606_2" x1="146.252" y1="438.749" x2="151.669" y2="417.083" gradientUnits="userSpaceOnUse">
<stop stop-color="#0061FF"/>
<stop offset="1" stop-color="white"/>
</linearGradient>
<linearGradient id="paint3_linear_1606_2" x1="152.21" y1="476.889" x2="152.21" y2="73.1954" gradientUnits="userSpaceOnUse">
<stop stop-color="#0061FF"/>
<stop offset="0.898" stop-color="white"/>
</linearGradient>
</defs>
</svg>
