<?xml version="1.0" encoding="UTF-8"?>
<svg version="1.1" xmlns="http://www.w3.org/2000/svg" width="225" height="225">
<path d="M0 0 C74.25 0 148.5 0 225 0 C225 74.25 225 148.5 225 225 C150.75 225 76.5 225 0 225 C0 150.75 0 76.5 0 0 Z " fill="#FEFEFE" transform="translate(0,0)"/>
<path d="M0 0 C2.95977977 3.51737246 5.27643441 7.05683141 7.46875 11.09375 C7.78623199 11.67402954 8.10371399 12.25430908 8.43081665 12.85217285 C9.45855738 14.73227407 10.4796526 16.6158775 11.5 18.5 C12.92160085 21.11615927 14.34625578 23.73063117 15.7734375 26.34375 C16.30600662 27.3196106 16.30600662 27.3196106 16.84933472 28.31518555 C19.08619529 32.39338807 21.40099374 36.41387589 23.7890625 40.40625 C24.63887695 41.83614258 24.63887695 41.83614258 25.50585938 43.29492188 C26.56260676 45.0604166 27.63365184 46.81745394 28.72070312 48.56445312 C29.18669922 49.34755859 29.65269531 50.13066406 30.1328125 50.9375 C30.54418457 51.60652344 30.95555664 52.27554688 31.37939453 52.96484375 C32.50657077 56.66120138 30.3148128 59.39640485 28.61816406 62.64941406 C28.08932617 63.59526367 27.56048828 64.54111328 27.015625 65.515625 C26.40847656 66.60488281 25.80132812 67.69414062 25.17578125 68.81640625 C24.54027344 69.94949219 23.90476562 71.08257812 23.25 72.25 C22.66089844 73.30574219 22.07179688 74.36148438 21.46484375 75.44921875 C19.7671951 78.48952121 18.06635353 81.52799761 16.36401367 84.56567383 C14.69585656 87.54279833 13.02858606 90.52041872 11.36132812 93.49804688 C7.90792019 99.66557077 4.4540781 105.8328514 1 112 C-7.17079477 112.39565726 -15.33753713 112.69673896 -23.51556969 112.88080692 C-27.31445975 112.9692101 -31.10676143 113.08876385 -34.90185547 113.2824707 C-59.23674352 114.49153917 -59.23674352 114.49153917 -65.26391602 110.50112915 C-68.83704653 106.64597889 -70.59240037 102.19445835 -72.20904541 97.25405884 C-73.405273 93.84505484 -75.20606536 90.8783464 -77.046875 87.78515625 C-78.2835155 85.54552026 -79.51793155 83.30465442 -80.75 81.0625 C-84.67656383 73.9236641 -88.62616801 66.83589586 -92.94238281 59.92358398 C-94 58 -94 58 -94 56 C-73.21 56 -52.42 56 -31 56 C-30.34 54.35 -29.68 52.7 -29 51 C-28.15252438 49.32052469 -27.27838239 47.65432973 -26.3828125 46 C-25.86388428 45.04013184 -25.34495605 44.08026367 -24.81030273 43.09130859 C-23.97607788 41.56111084 -23.97607788 41.56111084 -23.125 40 C-22.55144775 38.94506348 -21.97789551 37.89012695 -21.38696289 36.80322266 C-17.46847862 29.62354133 -13.48752349 22.48128533 -9.4375 15.375 C-8.94975098 14.51777344 -8.46200195 13.66054687 -7.95947266 12.77734375 C-5.45092958 8.40553637 -2.85629886 4.15339457 0 0 Z " fill="#CCCCCC" transform="translate(144,99)"/>
<path d="M0 0 C8.17079477 -0.39565726 16.33753713 -0.69673896 24.51556969 -0.88080692 C28.31445975 -0.9692101 32.10676143 -1.08876385 35.90185547 -1.2824707 C60.23674352 -2.49153917 60.23674352 -2.49153917 66.26391602 1.49887085 C69.83704653 5.35402111 71.59240037 9.80554165 73.20904541 14.74594116 C74.405273 18.15494516 76.20606536 21.1216536 78.046875 24.21484375 C79.2835155 26.45447974 80.51793155 28.69534558 81.75 30.9375 C85.67656383 38.0763359 89.62616801 45.16410414 93.94238281 52.07641602 C95 54 95 54 95 56 C74.21 56 53.42 56 32 56 C31.34 57.65 30.68 59.3 30 61 C29.23722824 62.51027812 28.44831997 64.00757839 27.63671875 65.4921875 C26.93385742 66.78092773 26.93385742 66.78092773 26.21679688 68.09570312 C25.71212891 69.01287109 25.20746094 69.93003906 24.6875 70.875 C23.90149414 72.30875977 23.90149414 72.30875977 23.09960938 73.77148438 C19.1056284 81.03627581 15.06710922 88.27592018 11 95.5 C10.46076904 96.46019043 9.92153809 97.42038086 9.3659668 98.40966797 C6.73361019 103.06376381 4.04706509 107.60519458 1 112 C-1.82009759 108.62843536 -4.10555835 105.26732177 -6.21484375 101.4140625 C-6.81304932 100.32883301 -7.41125488 99.24360352 -8.02758789 98.12548828 C-8.65785889 96.97032715 -9.28812988 95.81516602 -9.9375 94.625 C-11.26602802 92.19670534 -12.59705534 89.7697946 -13.9296875 87.34375 C-14.26567459 86.73129425 -14.60166168 86.1188385 -14.9478302 85.48782349 C-17.21259596 81.37747844 -19.55478863 77.32028682 -21.9453125 73.28125 C-22.55511963 72.24145996 -23.16492676 71.20166992 -23.79321289 70.13037109 C-24.95247526 68.16120871 -26.12569548 66.20018199 -27.31420898 64.24853516 C-28.08873413 62.92281494 -28.08873413 62.92281494 -28.87890625 61.5703125 C-29.56835327 60.42199951 -29.56835327 60.42199951 -30.27172852 59.25048828 C-31 57 -31 57 -30.3190918 54.55908203 C-28.91965283 51.84412381 -27.50637192 49.15064081 -26.015625 46.484375 C-25.40847656 45.39511719 -24.80132812 44.30585937 -24.17578125 43.18359375 C-23.22251953 41.48396484 -23.22251953 41.48396484 -22.25 39.75 C-21.66089844 38.69425781 -21.07179688 37.63851562 -20.46484375 36.55078125 C-18.7671951 33.51047879 -17.06635353 30.47200239 -15.36401367 27.43432617 C-13.69585656 24.45720167 -12.02858606 21.47958128 -10.36132812 18.50195312 C-6.90792019 12.33442923 -3.4540781 6.1671486 0 0 Z " fill="#CCCCCC" transform="translate(80,14)"/>
<path d="M0 0 C20.46 0 40.92 0 62 0 C60.65691735 4.02924796 59.71546863 6.80698758 57.671875 10.30078125 C56.97650635 11.50178467 56.97650635 11.50178467 56.26708984 12.72705078 C55.51613037 14.00684814 55.51613037 14.00684814 54.75 15.3125 C53.67332579 17.16990482 52.5978594 19.02801017 51.5234375 20.88671875 C50.95463867 21.86946777 50.38583984 22.8522168 49.79980469 23.86474609 C45.98459564 30.51082783 42.27266451 37.21543487 38.54589844 43.91137695 C37.69946777 45.4286438 37.69946777 45.4286438 36.8359375 46.9765625 C36.08642822 48.32355225 36.08642822 48.32355225 35.32177734 49.69775391 C34.28334913 51.506468 33.15688971 53.26466544 32 55 C31.34 55 30.68 55 30 55 C29.61368408 54.30253662 29.22736816 53.60507324 28.8293457 52.88647461 C26.99139821 49.56959403 25.15214521 46.25343911 23.3125 42.9375 C22.9776358 42.33363464 22.64277161 41.72976929 22.29776001 41.10760498 C18.61942828 34.47640399 14.92740515 27.85405411 11.1796875 21.26171875 C10.59018311 20.22474854 10.00067871 19.18777832 9.39331055 18.11938477 C8.27780878 16.16122974 7.1595916 14.20461848 6.03833008 12.24975586 C5.53454834 11.36553955 5.0307666 10.48132324 4.51171875 9.5703125 C4.07303467 8.80477051 3.63435059 8.03922852 3.18237305 7.25048828 C1.95479305 4.91395465 0.9802422 2.45060549 0 0 Z " fill="#D9D9D9" transform="translate(50,155)"/>
<path d="M0 0 C0.66 0 1.32 0 2 0 C2.38631592 0.69746338 2.77263184 1.39492676 3.1706543 2.11352539 C5.00860179 5.43040597 6.84785479 8.74656089 8.6875 12.0625 C9.0223642 12.66636536 9.35722839 13.27023071 9.70223999 13.89239502 C13.38057172 20.52359601 17.07259485 27.14594589 20.8203125 33.73828125 C21.40981689 34.77525146 21.99932129 35.81222168 22.60668945 36.88061523 C23.72219122 38.83877026 24.8404084 40.79538152 25.96166992 42.75024414 C26.46545166 43.63446045 26.9692334 44.51867676 27.48828125 45.4296875 C27.92696533 46.19522949 28.36564941 46.96077148 28.81762695 47.74951172 C30.04520695 50.08604535 31.0197578 52.54939451 32 55 C11.54 55 -8.92 55 -30 55 C-28.65691735 50.97075204 -27.71546863 48.19301242 -25.671875 44.69921875 C-25.2082959 43.8985498 -24.7447168 43.09788086 -24.26708984 42.27294922 C-23.7664502 41.41975098 -23.26581055 40.56655273 -22.75 39.6875 C-21.67332579 37.83009518 -20.5978594 35.97198983 -19.5234375 34.11328125 C-18.95463867 33.13053223 -18.38583984 32.1477832 -17.79980469 31.13525391 C-13.98459564 24.48917217 -10.27266451 17.78456513 -6.54589844 11.08862305 C-5.98161133 10.07711182 -5.41732422 9.06560059 -4.8359375 8.0234375 C-4.08642822 6.67644775 -4.08642822 6.67644775 -3.32177734 5.30224609 C-2.28334913 3.493532 -1.15688971 1.73533456 0 0 Z " fill="#D9D9D9" transform="translate(143,15)"/>
</svg>
